# xmcd
#
# Track frame offsets:
#	182
#	21585
#	40765
#	61060
#	68482
#	87577
#	114480
#	139447
#	166117
#	183745
#
# Disc length: 2658 seconds
#
# Revision: 1
# Processed by: cddbd v1.4PL0 Copyright (c) Steve Scherf et al.
# Submitted via: audiograbber 1.82.01
#
DISCID=890a600a
DTITLE=Guy Roel - Blues Concert live in Lausanne
DYEAR=1993
DGENRE=Blues
TTITLE0=Boom Boom
TTITLE1=Bien Trop Tard
TTITLE2=Bee Bob A Lula
TTITLE3=La Morille
TTITLE4=I Used To Love You
TTITLE5=Marie Christine
TTITLE6=J'ai Beau Fermer Les Yeux
TTITLE7=What A Woman
TTITLE8=La Fête
TTITLE9=Woodoo Daddy
EXTD=
EXTT0=
EXTT1=
EXTT2=
EXTT3=
EXTT4=
EXTT5=
EXTT6=
EXTT7=
EXTT8=
EXTT9=
PLAYORDER=
